{"asset":{"version":"2.0","generator":"VECTARY"},"nodes":[{"translation":[0,0.01,1.7763568394002505e-18],"scale":[0.001,0.001,0.001],"rotation":[-0.7071067811865475,0,0,0.7071067811865476],"name":"Straight road path","children":[1,2]},{"translation":[0,0,-10],"scale":[1,1,1],"rotation":[0,0,0,1],"name":"Project Name"},{"translation":[0,0,0],"scale":[1.0000000000000002,1.0000000000000002,1],"rotation":[0,0,-0.7071067811865475,0.7071067811865476],"name":"Straight road path","children":[3,4,5,6]},{"translation":[0,0,0],"scale":[1,1,1],"rotation":[0,0,0,1],"name":"Footpath","mesh":0},{"translation":[0,0,0],"scale":[1,1,1],"rotation":[0,0,0,1],"name":"Road","mesh":1},{"translation":[0,0,0],"scale":[1,1,1],"rotation":[0,0,0,1],"name":"Lines","mesh":2},{"translation":[0,0,0],"scale":[1,1,1],"rotation":[0,0,0,1],"name":"Grass","mesh":3},{"translation":[0.00041598892211914065,-1.7763568394002505e-18,0.009999999999999986],"scale":[0.001,0.001,0.001],"rotation":[-0.7071067811865475,0,0,0.7071067811865476],"name":"Parking lot block","children":[8]},{"translation":[-0.4159889221191406,9.999999999999986,0],"scale":[1,1,1],"rotation":[0,0,0,1],"name":"Project Name"},{"translation":[0,0,0],"scale":[0.001,0.001,0.001],"rotation":[-0.7071067811865475,0,0,0.7071067811865476],"name":"Project Name"},{"translation":[0,-1.6653345369377348e-19,0.0007375717163085884],"scale":[0.001,0.001,0.001],"rotation":[-0.7071067811865475,0,0,0.7071067811865476],"name":"Building with store","children":[11]},{"translation":[0,0.7375717163085884,0],"scale":[1,1,1],"rotation":[0,0,0,1],"name":"Project Name"}],"materials":[{"pbrMetallicRoughness":{"baseColorFactor":[0.39929329990267437,0.39408312608282897,0.39929329990267437,1],"metallicFactor":0,"roughnessFactor":1},"name":"Footpath 1","emissiveFactor":[0,0,0],"extensions":{},"alphaMode":"OPAQUE","doubleSided":false},{"pbrMetallicRoughness":{"baseColorFactor":[0.04455262731642138,0.04614884242235095,0.08021925873621505,1],"metallicFactor":0,"roughnessFactor":1},"name":"Road 1","emissiveFactor":[0,0,0],"extensions":{},"alphaMode":"OPAQUE","doubleSided":false},{"pbrMetallicRoughness":{"baseColorFactor":[1,1,1,1],"metallicFactor":0,"roughnessFactor":1},"name":"Lines 1","emissiveFactor":[0,0,0],"extensions":{},"alphaMode":"OPAQUE","doubleSided":false},{"pbrMetallicRoughness":{"baseColorFactor":[0.04777575355617064,0.6253447208024265,0.20109572962134564,1],"metallicFactor":0,"roughnessFactor":1},"name":"Grass 1","emissiveFactor":[0,0,0],"extensions":{},"alphaMode":"OPAQUE","doubleSided":false}],"meshes":[{"primitives":[{"mode":4,"attributes":{"POSITION":1,"NORMAL":2,"TEXCOORD_0":3},"material":0,"indices":0}]},{"primitives":[{"mode":4,"attributes":{"POSITION":5,"NORMAL":6,"TEXCOORD_0":7},"material":1,"indices":4}]},{"primitives":[{"mode":4,"attributes":{"POSITION":9,"NORMAL":10,"TEXCOORD_0":11},"material":2,"indices":8}]},{"primitives":[{"mode":4,"attributes":{"POSITION":13,"NORMAL":14,"TEXCOORD_0":15},"material":3,"indices":12}]}],"accessors":[{"bufferView":0,"byteOffset":0,"componentType":5125,"count":156,"type":"SCALAR"},{"bufferView":1,"byteOffset":0,"componentType":5126,"count":88,"max":[60,80,3],"min":[-80,-80,0],"type":"VEC3"},{"bufferView":2,"byteOffset":0,"componentType":5126,"count":88,"type":"VEC3"},{"bufferView":3,"byteOffset":0,"componentType":5126,"count":88,"type":"VEC2"},{"bufferView":4,"byteOffset":0,"componentType":5125,"count":36,"type":"SCALAR"},{"bufferView":5,"byteOffset":0,"componentType":5126,"count":24,"max":[40,80,2],"min":[-40,-80,0],"type":"VEC3"},{"bufferView":6,"byteOffset":0,"componentType":5126,"count":24,"type":"VEC3"},{"bufferView":7,"byteOffset":0,"componentType":5126,"count":24,"type":"VEC2"},{"bufferView":8,"byteOffset":0,"componentType":5125,"count":108,"type":"SCALAR"},{"bufferView":9,"byteOffset":0,"componentType":5126,"count":72,"max":[1.6349999904632568,73.49500274658203,2.5],"min":[-1.6349999904632568,-66.66699981689453,2],"type":"VEC3"},{"bufferView":10,"byteOffset":0,"componentType":5126,"count":72,"type":"VEC3"},{"bufferView":11,"byteOffset":0,"componentType":5126,"count":72,"type":"VEC2"},{"bufferView":12,"byteOffset":0,"componentType":5125,"count":120,"type":"SCALAR"},{"bufferView":13,"byteOffset":0,"componentType":5126,"count":64,"max":[80,80,2],"min":[-80,-80,0],"type":"VEC3"},{"bufferView":14,"byteOffset":0,"componentType":5126,"count":64,"type":"VEC3"},{"bufferView":15,"byteOffset":0,"componentType":5126,"count":64,"type":"VEC2"}],"bufferViews":[{"buffer":0,"byteOffset":0,"byteLength":624,"target":34963},{"buffer":0,"byteOffset":624,"byteLength":1056,"target":34962},{"buffer":0,"byteOffset":1680,"byteLength":1056,"target":34962},{"buffer":0,"byteOffset":2736,"byteLength":704,"target":34962},{"buffer":0,"byteOffset":3440,"byteLength":144,"target":34963},{"buffer":0,"byteOffset":3584,"byteLength":288,"target":34962},{"buffer":0,"byteOffset":3872,"byteLength":288,"target":34962},{"buffer":0,"byteOffset":4160,"byteLength":192,"target":34962},{"buffer":0,"byteOffset":4352,"byteLength":432,"target":34963},{"buffer":0,"byteOffset":4784,"byteLength":864,"target":34962},{"buffer":0,"byteOffset":5648,"byteLength":864,"target":34962},{"buffer":0,"byteOffset":6512,"byteLength":576,"target":34962},{"buffer":0,"byteOffset":7088,"byteLength":480,"target":34963},{"buffer":0,"byteOffset":7568,"byteLength":768,"target":34962},{"buffer":0,"byteOffset":8336,"byteLength":768,"target":34962},{"buffer":0,"byteOffset":9104,"byteLength":512,"target":34962}],"scene":0,"scenes":[{"nodes":[0,7,9,10],"name":"CG-City Assets"}],"extensionsUsed":["KHR_texture_transform"],"buffers":[{"byteLength":9616,"uri":"CG-CityAssets.bin"}]}