{"asset":{"version":"2.0","generator":"VECTARY"},"nodes":[{"translation":[0.0003689999580383301,-5.551115123125783e-20,0.0008174999952316284],"scale":[0.001,0.001,0.001],"rotation":[-0.7071067811865475,0,0,0.7071067811865476],"name":"Traffic light","children":[1,2]},{"translation":[-0.3689999580383301,0.8174999952316284,0],"scale":[1,1,1],"rotation":[0,0,0,1],"name":"Project Name"},{"translation":[-0.3689999580383301,0.8174999952316284,0],"scale":[1,1,1],"rotation":[0,0,0,1],"name":"Traffic light","children":[3,4,5,6,7,8,9]},{"translation":[0.3689999580383301,-1.8779999613761902,22.56599998474121],"scale":[1,1,1],"rotation":[0,0,0,1],"name":"Stop","mesh":0},{"translation":[-0.003999948501586914,-0.8174999952316284,42.32699966430664],"scale":[1,1,1],"rotation":[0,0,0,1],"name":"Main body","mesh":1},{"translation":[-0.0040000081062316895,0,0],"scale":[1,1,1],"rotation":[0,0,0,1],"name":"Stick","mesh":2},{"translation":[0.36950016021728516,-1.6229999661445618,23.3700008392334],"scale":[1,1,1],"rotation":[0,0,0,1],"name":"Sign","mesh":3},{"translation":[-0.0040000081062316895,-2.409999966621399,43.16400146484375],"scale":[1,1,1],"rotation":[0,0,0,1],"name":"Green light","mesh":4},{"translation":[-0.0040000081062316895,-2.409999966621399,47.689998626708984],"scale":[1,1,1],"rotation":[0,0,0,1],"name":"Orange light","mesh":5},{"translation":[-0.0040000081062316895,-2.409999966621399,52.237998962402344],"scale":[1,1,1],"rotation":[0,0,0,1],"name":"Red light","mesh":6},{"translation":[0.00041598892211914065,-1.7763568394002505e-18,0.009999999999999986],"scale":[0.001,0.001,0.001],"rotation":[-0.7071067811865475,0,0,0.7071067811865476],"name":"Parking lot block","children":[11]},{"translation":[-0.4159889221191406,9.999999999999986,0],"scale":[1,1,1],"rotation":[0,0,0,1],"name":"Project Name"},{"translation":[0,0,0],"scale":[0.001,0.001,0.001],"rotation":[-0.7071067811865475,0,0,0.7071067811865476],"name":"Project Name"},{"translation":[0,-1.6653345369377348e-19,0.0007375717163085884],"scale":[0.001,0.001,0.001],"rotation":[-0.7071067811865475,0,0,0.7071067811865476],"name":"Building with store","children":[14]},{"translation":[0,0.7375717163085884,0],"scale":[1,1,1],"rotation":[0,0,0,1],"name":"Project Name"}],"materials":[{"pbrMetallicRoughness":{"baseColorFactor":[1,1,1,1],"metallicFactor":0,"roughnessFactor":1},"name":"Stop","emissiveFactor":[0,0,0],"extensions":{},"alphaMode":"OPAQUE","doubleSided":false},{"pbrMetallicRoughness":{"baseColorFactor":[0.04455262731642138,0.04614884242235095,0.08021925873621505,1],"metallicFactor":0,"roughnessFactor":1},"name":"Black material","emissiveFactor":[0,0,0],"extensions":{},"alphaMode":"OPAQUE","doubleSided":false},{"pbrMetallicRoughness":{"baseColorFactor":[0.9489649381781952,0.08690125178766034,0.16364067148528988,1],"metallicFactor":0,"roughnessFactor":1},"name":"Sign","emissiveFactor":[0,0,0],"extensions":{},"alphaMode":"OPAQUE","doubleSided":false},{"pbrMetallicRoughness":{"baseColorFactor":[0.04777575355617064,0.6253447208024265,0.20109572962134564,1],"metallicFactor":0,"roughnessFactor":0.5},"name":"Green light","emissiveFactor":[0,0,0],"extensions":{},"alphaMode":"OPAQUE","doubleSided":false},{"pbrMetallicRoughness":{"baseColorFactor":[1,0.6054842999109071,0.04614884242235095,1],"metallicFactor":0,"roughnessFactor":0.5},"name":"Orange light","emissiveFactor":[0,0,0],"extensions":{},"alphaMode":"OPAQUE","doubleSided":false},{"pbrMetallicRoughness":{"baseColorFactor":[0.9489649381781952,0.08690125178766034,0.16364067148528988,1],"metallicFactor":0,"roughnessFactor":0.5},"name":"Red light","emissiveFactor":[0,0,0],"extensions":{},"alphaMode":"OPAQUE","doubleSided":false}],"meshes":[{"primitives":[{"mode":4,"attributes":{"POSITION":1,"NORMAL":2,"TEXCOORD_0":3},"material":0,"indices":0}]},{"primitives":[{"mode":4,"attributes":{"POSITION":5,"NORMAL":6,"TEXCOORD_0":7},"material":1,"indices":4}]},{"primitives":[{"mode":4,"attributes":{"POSITION":9,"NORMAL":10,"TEXCOORD_0":11},"material":1,"indices":8}]},{"primitives":[{"mode":4,"attributes":{"POSITION":13,"NORMAL":14,"TEXCOORD_0":15},"material":2,"indices":12}]},{"primitives":[{"mode":4,"attributes":{"POSITION":17,"NORMAL":18,"TEXCOORD_0":19},"material":3,"indices":16}]},{"primitives":[{"mode":4,"attributes":{"POSITION":21,"NORMAL":22,"TEXCOORD_0":23},"material":4,"indices":20}]},{"primitives":[{"mode":4,"attributes":{"POSITION":25,"NORMAL":26,"TEXCOORD_0":27},"material":5,"indices":24}]}],"accessors":[{"bufferView":0,"byteOffset":0,"componentType":5125,"count":2637,"type":"SCALAR"},{"bufferView":1,"byteOffset":0,"componentType":5126,"count":1102,"max":[6.169000148773193,0.9389999508857727,12.33799934387207],"min":[-6.169000148773193,-0.9389999508857727,0],"type":"VEC3"},{"bufferView":2,"byteOffset":0,"componentType":5126,"count":1102,"type":"VEC3"},{"bufferView":3,"byteOffset":0,"componentType":5126,"count":1102,"type":"VEC2"},{"bufferView":4,"byteOffset":0,"componentType":5125,"count":1224,"type":"SCALAR"},{"bufferView":5,"byteOffset":0,"componentType":5126,"count":541,"max":[2.680999994277954,4.109499931335449,14.51300048828125],"min":[-2.680999994277954,-4.109499931335449,0],"type":"VEC3"},{"bufferView":6,"byteOffset":0,"componentType":5126,"count":541,"type":"VEC3"},{"bufferView":7,"byteOffset":0,"componentType":5126,"count":541,"type":"VEC2"},{"bufferView":8,"byteOffset":0,"componentType":5125,"count":174,"type":"SCALAR"},{"bufferView":9,"byteOffset":0,"componentType":5126,"count":75,"max":[1.7669999599456787,2.0399999618530273,43.72600173950195],"min":[-1.7669999599456787,-2.0399999618530273,0],"type":"VEC3"},{"bufferView":10,"byteOffset":0,"componentType":5126,"count":75,"type":"VEC3"},{"bufferView":11,"byteOffset":0,"componentType":5126,"count":75,"type":"VEC2"},{"bufferView":12,"byteOffset":0,"componentType":5125,"count":96,"type":"SCALAR"},{"bufferView":13,"byteOffset":0,"componentType":5126,"count":50,"max":[5.365499973297119,0.6839999556541443,10.729997634887695],"min":[-5.365499973297119,-0.6839999556541443,0],"type":"VEC3"},{"bufferView":14,"byteOffset":0,"componentType":5126,"count":50,"type":"VEC3"},{"bufferView":15,"byteOffset":0,"componentType":5126,"count":50,"type":"VEC2"},{"bufferView":16,"byteOffset":0,"componentType":5125,"count":192,"type":"SCALAR"},{"bufferView":17,"byteOffset":0,"componentType":5126,"count":73,"max":[1.9200000762939453,0.5349999666213989,3.8400001525878906],"min":[-1.9200000762939453,-0.5349999666213989,0],"type":"VEC3"},{"bufferView":18,"byteOffset":0,"componentType":5126,"count":73,"type":"VEC3"},{"bufferView":19,"byteOffset":0,"componentType":5126,"count":73,"type":"VEC2"},{"bufferView":20,"byteOffset":0,"componentType":5125,"count":192,"type":"SCALAR"},{"bufferView":21,"byteOffset":0,"componentType":5126,"count":74,"max":[1.9200000762939453,0.5349999666213989,3.8409996032714844],"min":[-1.9200000762939453,-0.5349999666213989,0],"type":"VEC3"},{"bufferView":22,"byteOffset":0,"componentType":5126,"count":74,"type":"VEC3"},{"bufferView":23,"byteOffset":0,"componentType":5126,"count":74,"type":"VEC2"},{"bufferView":24,"byteOffset":0,"componentType":5125,"count":192,"type":"SCALAR"},{"bufferView":25,"byteOffset":0,"componentType":5126,"count":74,"max":[1.9200000762939453,0.5349999666213989,3.8400001525878906],"min":[-1.9200000762939453,-0.5349999666213989,0],"type":"VEC3"},{"bufferView":26,"byteOffset":0,"componentType":5126,"count":74,"type":"VEC3"},{"bufferView":27,"byteOffset":0,"componentType":5126,"count":74,"type":"VEC2"}],"bufferViews":[{"buffer":0,"byteOffset":0,"byteLength":10548,"target":34963},{"buffer":0,"byteOffset":10548,"byteLength":13224,"target":34962},{"buffer":0,"byteOffset":23772,"byteLength":13224,"target":34962},{"buffer":0,"byteOffset":36996,"byteLength":8816,"target":34962},{"buffer":0,"byteOffset":45812,"byteLength":4896,"target":34963},{"buffer":0,"byteOffset":50708,"byteLength":6492,"target":34962},{"buffer":0,"byteOffset":57200,"byteLength":6492,"target":34962},{"buffer":0,"byteOffset":63692,"byteLength":4328,"target":34962},{"buffer":0,"byteOffset":68020,"byteLength":696,"target":34963},{"buffer":0,"byteOffset":68716,"byteLength":900,"target":34962},{"buffer":0,"byteOffset":69616,"byteLength":900,"target":34962},{"buffer":0,"byteOffset":70516,"byteLength":600,"target":34962},{"buffer":0,"byteOffset":71116,"byteLength":384,"target":34963},{"buffer":0,"byteOffset":71500,"byteLength":600,"target":34962},{"buffer":0,"byteOffset":72100,"byteLength":600,"target":34962},{"buffer":0,"byteOffset":72700,"byteLength":400,"target":34962},{"buffer":0,"byteOffset":73100,"byteLength":768,"target":34963},{"buffer":0,"byteOffset":73868,"byteLength":876,"target":34962},{"buffer":0,"byteOffset":74744,"byteLength":876,"target":34962},{"buffer":0,"byteOffset":75620,"byteLength":584,"target":34962},{"buffer":0,"byteOffset":76204,"byteLength":768,"target":34963},{"buffer":0,"byteOffset":76972,"byteLength":888,"target":34962},{"buffer":0,"byteOffset":77860,"byteLength":888,"target":34962},{"buffer":0,"byteOffset":78748,"byteLength":592,"target":34962},{"buffer":0,"byteOffset":79340,"byteLength":768,"target":34963},{"buffer":0,"byteOffset":80108,"byteLength":888,"target":34962},{"buffer":0,"byteOffset":80996,"byteLength":888,"target":34962},{"buffer":0,"byteOffset":81884,"byteLength":592,"target":34962}],"scene":0,"scenes":[{"nodes":[0,10,12,13],"name":"CG-City Assets"}],"extensionsUsed":["KHR_texture_transform"],"buffers":[{"byteLength":82476,"uri":"CG-CityAssets.bin"}]}