{"asset":{"version":"2.0","generator":"VECTARY"},"nodes":[{"translation":[-0.10793841432780027,0.0068571496009827235,-0.008675790905952338],"scale":[0.0010000000000000002,0.0010000000000000002,0.001],"rotation":[-0.5,0.4999999999999999,0.5,0.5000000000000001],"name":"Car","children":[1,2,3,7,8,9,10,14,17,20,21]},{"translation":[-109.37433826923356,-99.27087488172289,190.80476140975946],"scale":[1,1,1],"rotation":[0,0,0,1],"name":"Car","mesh":0},{"translation":[674.9931086301805,-99.27084102628466,1951.3902258872986],"scale":[1000,999.9999999999999,999.9999999999999],"rotation":[0,0,0,1],"name":"Glass","mesh":1},{"translation":[-2005.696970105171,-99.27086367604967,778.7927222251891],"scale":[1000,999.9999999999999,999.9999999999999],"rotation":[0,0,0,1],"name":"Front lights","children":[4,5,6]},{"translation":[0,0,0],"scale":[1,1,1],"rotation":[0,0,0,1],"name":"Light covers","mesh":2},{"translation":[0,0,0],"scale":[1,1,1],"rotation":[0,0,0,1],"name":"Front lights","mesh":3},{"translation":[1.7934749984741207,-0.5319388700704716,0.520228032232649],"scale":[1,1,1],"rotation":[0,0,0,1],"name":"Cylinder.057","mesh":4},{"translation":[1853.0533350706103,-99.2708040714049,471.84684514999384],"scale":[1000,999.9999999999999,999.9999999999999],"rotation":[0,0,0,1],"name":"Rear bumper","mesh":5},{"translation":[-2065.477396130562,-99.27083387372728,334.6688055992126],"scale":[1000,999.9999999999999,999.9999999999999],"rotation":[0,0,0,1],"name":"Front license plate","mesh":6},{"translation":[-1986.786600232124,-97.51733913419481,778.1586432456969],"scale":[1000,999.9999999999999,999.9999999999999],"rotation":[0,0,0,1],"name":"Front mask","mesh":7},{"translation":[-182.61425602436051,-99.26908984182116,290.4557585716247],"scale":[1000,999.9999999999999,999.9999999999999],"rotation":[0,0,0,1],"name":"mudguard","children":[11,12,13]},{"translation":[0,0,0],"scale":[1,1,1],"rotation":[0,0,0,1],"name":"Buffer Object","mesh":8},{"translation":[0,0,0],"scale":[1,1,1],"rotation":[0,0,0,1],"name":"Buffer Object","mesh":9},{"translation":[0,0,0],"scale":[1,1,1],"rotation":[0,0,0,1],"name":"Buffer Object","mesh":10},{"translation":[1796.2557565867903,-117.6662947177498,690.7374738639987],"scale":[1,1,1],"rotation":[0,0,0,1],"name":"Rear lights","children":[15,16]},{"translation":[20.635926872491837,-0.000007152574767133046,90.00674670845717],"scale":[1000,999.9999999999999,999.9999999999999],"rotation":[0,0,0,1],"name":"Brake lights","mesh":11},{"translation":[20.63546910881996,0.000007152539978960704,277.358507572715],"scale":[1000,999.9999999999998,999.9999999999998],"rotation":[0,0,0,1],"name":"Turn signals","mesh":12},{"translation":[629.4483931064607,-99.27087953731503,578.4572211540493],"scale":[1,1,1],"rotation":[0,0,0,1],"name":"Inside","children":[18,19]},{"translation":[578.8918071985245,-0.00007354570180950759,545.4657348357882],"scale":[1000,999.9999999999999,999.9999999999999],"rotation":[0,0,0,1],"name":"Rear seats","mesh":13},{"translation":[-309.76870000362396,0.000038511030368226784,649.5868285857882],"scale":[1000,999.9999999999999,999.9999999999999],"rotation":[0,0,0,1],"name":"Front seats","mesh":14},{"translation":[305.4388369321824,-1318.8065804481291,988.8176703453063],"scale":[1000,999.9999999999999,999.9999999999999],"rotation":[0,0,0,1],"name":"Door knobs","mesh":15},{"translation":[-2021.4378758668897,-99.27087488172289,248.35693120956415],"scale":[1,1,1],"rotation":[0,0,0,1],"name":"Front bumper","mesh":16},{"translation":[0,-1.6653345369377348e-19,0.0007375717163085884],"scale":[0.001,0.001,0.001],"rotation":[-0.7071067811865475,0,0,0.7071067811865476],"name":"Building with store","children":[23]},{"translation":[0,0.7375717163085884,0],"scale":[1,1,1],"rotation":[0,0,0,1],"name":"Project Name"}],"materials":[{"pbrMetallicRoughness":{"baseColorFactor":[1,1,1,1],"baseColorTexture":{"index":0,"extensions":{"KHR_texture_transform":{"offset":[0,0],"scale":[1,1],"rotation":0}},"texCoord":0},"metallicFactor":0,"roughnessFactor":0.2},"name":"Color 1","emissiveFactor":[0,0,0],"extensions":{},"alphaMode":"OPAQUE","doubleSided":false},{"pbrMetallicRoughness":{"baseColorFactor":[0.18354899846495082,0.41514809165590655,0.6320426176206414,1],"metallicFactor":0,"roughnessFactor":0.06},"name":"Glass","emissiveFactor":[0,0,0],"extensions":{"KHR_materials_transmission":{"transmissionFactor":1},"KHR_materials_ior":{"ior":1},"KHR_materials_volume":{"thicknessFactor":0.01,"attenuationDistance":0.01,"attenuationColor":[1,1,1]}},"alphaMode":"OPAQUE","doubleSided":false},{"pbrMetallicRoughness":{"baseColorFactor":[1,0.9658146535031301,0.0004925037871914326,1],"metallicFactor":0,"roughnessFactor":0.2},"name":"Lights","emissiveFactor":[0.7,0.7,0.7],"extensions":{},"alphaMode":"OPAQUE","doubleSided":false},{"pbrMetallicRoughness":{"baseColorFactor":[0.9157501292792527,0.30212549635885283,0.028991186547107816,1],"metallicFactor":0,"roughnessFactor":0.6},"name":"Color 2","emissiveFactor":[0,0,0],"extensions":{},"alphaMode":"OPAQUE","doubleSided":false},{"pbrMetallicRoughness":{"baseColorFactor":[0,0,0,1],"metallicFactor":0,"roughnessFactor":0.74},"name":"Material 3","emissiveFactor":[0,0,0],"extensions":{},"alphaMode":"OPAQUE","doubleSided":false},{"pbrMetallicRoughness":{"baseColorFactor":[0.6120656199306977,0.6120656199306977,0.6120656199306977,1],"metallicFactor":0,"roughnessFactor":0.2},"name":"Color 5","emissiveFactor":[0,0,0],"extensions":{},"alphaMode":"OPAQUE","doubleSided":false},{"pbrMetallicRoughness":{"baseColorFactor":[0.8670237934377415,0.8670237934377415,0.8670237934377415,1],"metallicFactor":0,"roughnessFactor":0.2},"name":"Aura","emissiveFactor":[0,0,0],"extensions":{},"alphaMode":"OPAQUE","doubleSided":false},{"pbrMetallicRoughness":{"baseColorFactor":[0.5795466117825252,0.5795466117825252,0.5795466117825252,1],"metallicFactor":0,"roughnessFactor":0.13},"name":"Color 3","emissiveFactor":[0,0,0],"extensions":{},"alphaMode":"OPAQUE","doubleSided":false},{"pbrMetallicRoughness":{"baseColorFactor":[0,0,0,1],"metallicFactor":0,"roughnessFactor":0.14},"name":"Wheels","emissiveFactor":[0,0,0],"extensions":{},"alphaMode":"OPAQUE","doubleSided":false},{"pbrMetallicRoughness":{"baseColorFactor":[0.6800203421720954,0.06003160713631324,0.06003160713631324,1],"metallicFactor":0,"roughnessFactor":0.14},"name":"Brakes","emissiveFactor":[0,0,0],"extensions":{},"alphaMode":"OPAQUE","doubleSided":false},{"pbrMetallicRoughness":{"baseColorFactor":[1,0.4423229488192018,0.017936433339950233,1],"metallicFactor":0,"roughnessFactor":0.18},"name":"Turn signals","emissiveFactor":[0,0,0],"extensions":{},"alphaMode":"OPAQUE","doubleSided":false},{"pbrMetallicRoughness":{"baseColorFactor":[0.2388279842720483,0.2388279842720483,0.2388279842720483,1],"metallicFactor":0,"roughnessFactor":0.2},"name":"Material 2","emissiveFactor":[0,0,0],"extensions":{},"alphaMode":"OPAQUE","doubleSided":false}],"textures":[{"sampler":0,"source":0}],"images":[{"uri":"Color_1_BaseColo.jpg","mimeType":"image/jpeg"}],"samplers":[{"wrapS":10497,"wrapT":10497}],"meshes":[{"primitives":[{"mode":4,"attributes":{"POSITION":1,"NORMAL":2,"TEXCOORD_0":3},"material":0,"indices":0}]},{"primitives":[{"mode":4,"attributes":{"POSITION":5,"NORMAL":6,"TEXCOORD_0":7},"material":1,"indices":4}]},{"primitives":[{"mode":4,"attributes":{"POSITION":9,"NORMAL":10,"TEXCOORD_0":11},"material":2,"indices":8}]},{"primitives":[{"mode":4,"attributes":{"POSITION":13,"NORMAL":14,"TEXCOORD_0":15},"material":3,"indices":12}]},{"primitives":[{"mode":4,"attributes":{"POSITION":17,"NORMAL":18,"TEXCOORD_0":19},"material":4,"indices":16}]},{"primitives":[{"mode":4,"attributes":{"POSITION":21,"NORMAL":22,"TEXCOORD_0":23},"material":5,"indices":20}]},{"primitives":[{"mode":4,"attributes":{"POSITION":25,"NORMAL":26,"TEXCOORD_0":27},"material":6,"indices":24}]},{"primitives":[{"mode":4,"attributes":{"POSITION":29,"NORMAL":30,"TEXCOORD_0":31},"material":3,"indices":28}]},{"primitives":[{"mode":4,"attributes":{"POSITION":33,"NORMAL":34,"TEXCOORD_0":35},"material":0,"indices":32}]},{"primitives":[{"mode":4,"attributes":{"POSITION":37,"NORMAL":38,"TEXCOORD_0":39},"material":7,"indices":36}]},{"primitives":[{"mode":4,"attributes":{"POSITION":41,"NORMAL":42,"TEXCOORD_0":43},"material":8,"indices":40}]},{"primitives":[{"mode":4,"attributes":{"POSITION":45,"NORMAL":46,"TEXCOORD_0":47},"material":9,"indices":44}]},{"primitives":[{"mode":4,"attributes":{"POSITION":49,"NORMAL":50,"TEXCOORD_0":51},"material":10,"indices":48}]},{"primitives":[{"mode":4,"attributes":{"POSITION":53,"NORMAL":54,"TEXCOORD_0":55},"material":4,"indices":52}]},{"primitives":[{"mode":4,"attributes":{"POSITION":57,"NORMAL":58,"TEXCOORD_0":59},"material":4,"indices":56}]},{"primitives":[{"mode":4,"attributes":{"POSITION":61,"NORMAL":62,"TEXCOORD_0":63},"material":11,"indices":60}]},{"primitives":[{"mode":4,"attributes":{"POSITION":65,"NORMAL":66,"TEXCOORD_0":67},"material":7,"indices":64}]}],"accessors":[{"bufferView":0,"byteOffset":0,"componentType":5125,"count":1848,"type":"SCALAR"},{"bufferView":1,"byteOffset":0,"componentType":5126,"count":1129,"max":[1931.63427734375,1182.431640625,2458.50830078125],"min":[-1931.63427734375,-1182.431640625,0],"type":"VEC3"},{"bufferView":2,"byteOffset":0,"componentType":5126,"count":1129,"type":"VEC3"},{"bufferView":3,"byteOffset":0,"componentType":5126,"count":1129,"type":"VEC2"},{"bufferView":4,"byteOffset":0,"componentType":5125,"count":288,"type":"SCALAR"},{"bufferView":5,"byteOffset":0,"componentType":5126,"count":192,"max":[1.0521470308303833,1.0842556953430176,0.6395314931869507],"min":[-1.108141541481018,-1.0842556953430176,-0.6077128648757935],"type":"VEC3"},{"bufferView":6,"byteOffset":0,"componentType":5126,"count":192,"type":"VEC3"},{"bufferView":7,"byteOffset":0,"componentType":5126,"count":192,"type":"VEC2"},{"bufferView":8,"byteOffset":0,"componentType":5125,"count":864,"type":"SCALAR"},{"bufferView":9,"byteOffset":0,"componentType":5126,"count":210,"max":[0.03140437602996826,0.9421114325523376,0.14634940028190613],"min":[-0.04682258144021034,-0.9421114325523376,-0.14635533094406128],"type":"VEC3"},{"bufferView":10,"byteOffset":0,"componentType":5126,"count":210,"type":"VEC3"},{"bufferView":11,"byteOffset":0,"componentType":5126,"count":210,"type":"VEC2"},{"bufferView":12,"byteOffset":0,"componentType":5125,"count":720,"type":"SCALAR"},{"bufferView":13,"byteOffset":0,"componentType":5126,"count":466,"max":[0.03514295443892479,0.9641793966293335,0.16841746866703033],"min":[-0.009509461000561714,-0.9641793966293335,-0.16842330992221832],"type":"VEC3"},{"bufferView":14,"byteOffset":0,"componentType":5126,"count":466,"type":"VEC3"},{"bufferView":15,"byteOffset":0,"componentType":5126,"count":466,"type":"VEC2"},{"bufferView":16,"byteOffset":0,"componentType":5125,"count":738,"type":"SCALAR"},{"bufferView":17,"byteOffset":0,"componentType":5126,"count":522,"max":[0.1388733983039856,0.18803666532039642,0.19954872131347656],"min":[-0.31632736325263977,-0.18761862814426422,-0.16660864651203156],"type":"VEC3"},{"bufferView":18,"byteOffset":0,"componentType":5126,"count":522,"type":"VEC3"},{"bufferView":19,"byteOffset":0,"componentType":5126,"count":522,"type":"VEC2"},{"bufferView":20,"byteOffset":0,"componentType":5125,"count":132,"type":"SCALAR"},{"bufferView":21,"byteOffset":0,"componentType":5126,"count":86,"max":[0.031249025836586952,1.2471182346343994,0.050739504396915436],"min":[-0.14756877720355988,-1.2471182346343994,-0.05073896795511246],"type":"VEC3"},{"bufferView":22,"byteOffset":0,"componentType":5126,"count":86,"type":"VEC3"},{"bufferView":23,"byteOffset":0,"componentType":5126,"count":86,"type":"VEC2"},{"bufferView":24,"byteOffset":0,"componentType":5125,"count":36,"type":"SCALAR"},{"bufferView":25,"byteOffset":0,"componentType":5126,"count":24,"max":[0.010584396310150623,0.3021393120288849,0.08100978285074234],"min":[-0.010583964176476002,-0.3021393120288849,-0.08100999891757965],"type":"VEC3"},{"bufferView":26,"byteOffset":0,"componentType":5126,"count":24,"type":"VEC3"},{"bufferView":27,"byteOffset":0,"componentType":5126,"count":24,"type":"VEC2"},{"bufferView":28,"byteOffset":0,"componentType":5125,"count":54,"type":"SCALAR"},{"bufferView":29,"byteOffset":0,"componentType":5126,"count":36,"max":[0.04554835706949234,0.7905436158180237,0.16267260909080505],"min":[-0.02277444861829281,-0.779621422290802,-0.16254349052906036],"type":"VEC3"},{"bufferView":30,"byteOffset":0,"componentType":5126,"count":36,"type":"VEC3"},{"bufferView":31,"byteOffset":0,"componentType":5126,"count":36,"type":"VEC2"},{"bufferView":32,"byteOffset":0,"componentType":5125,"count":1488,"type":"SCALAR"},{"bufferView":33,"byteOffset":0,"componentType":5126,"count":584,"max":[1.5624573230743408,1.178946852684021,0.24042066931724548],"min":[-1.562530755996704,-1.1789501905441284,-0.11781874299049377],"type":"VEC3"},{"bufferView":34,"byteOffset":0,"componentType":5126,"count":584,"type":"VEC3"},{"bufferView":35,"byteOffset":0,"componentType":5126,"count":584,"type":"VEC2"},{"bufferView":36,"byteOffset":0,"componentType":5125,"count":7104,"type":"SCALAR"},{"bufferView":37,"byteOffset":0,"componentType":5126,"count":2264,"max":[1.4073820114135742,1.114454746246338,0.12691159546375275],"min":[-1.407455563545227,-1.1144583225250244,-0.20993328094482422],"type":"VEC3"},{"bufferView":38,"byteOffset":0,"componentType":5126,"count":2264,"type":"VEC3"},{"bufferView":39,"byteOffset":0,"componentType":5126,"count":2264,"type":"VEC2"},{"bufferView":40,"byteOffset":0,"componentType":5125,"count":1920,"type":"SCALAR"},{"bufferView":41,"byteOffset":0,"componentType":5126,"count":704,"max":[1.4879045486450195,1.1331137418746948,0.2074340581893921],"min":[-1.4879778623580933,-1.1331171989440918,-0.29045575857162476],"type":"VEC3"},{"bufferView":42,"byteOffset":0,"componentType":5126,"count":704,"type":"VEC3"},{"bufferView":43,"byteOffset":0,"componentType":5126,"count":704,"type":"VEC2"},{"bufferView":44,"byteOffset":0,"componentType":5125,"count":120,"type":"SCALAR"},{"bufferView":45,"byteOffset":0,"componentType":5126,"count":72,"max":[0.032537177205085754,1.1912044286727905,0.09000688046216965],"min":[-0.07380900532007217,-1.1912044286727905,-0.09000655263662338],"type":"VEC3"},{"bufferView":46,"byteOffset":0,"componentType":5126,"count":72,"type":"VEC3"},{"bufferView":47,"byteOffset":0,"componentType":5126,"count":72,"type":"VEC2"},{"bufferView":48,"byteOffset":0,"componentType":5125,"count":120,"type":"SCALAR"},{"bufferView":49,"byteOffset":0,"componentType":5126,"count":72,"max":[0.032537609338760376,1.1912044286727905,0.0900067687034607],"min":[-0.07380857318639755,-1.1912044286727905,-0.0900067687034607],"type":"VEC3"},{"bufferView":50,"byteOffset":0,"componentType":5126,"count":72,"type":"VEC3"},{"bufferView":51,"byteOffset":0,"componentType":5126,"count":72,"type":"VEC2"},{"bufferView":52,"byteOffset":0,"componentType":5125,"count":144,"type":"SCALAR"},{"bufferView":53,"byteOffset":0,"componentType":5126,"count":88,"max":[0.2894412577152252,0.9270433187484741,0.6408997774124146],"min":[-0.5297891497612,-0.9270433187484741,-0.5454655289649963],"type":"VEC3"},{"bufferView":54,"byteOffset":0,"componentType":5126,"count":88,"type":"VEC3"},{"bufferView":55,"byteOffset":0,"componentType":5126,"count":88,"type":"VEC2"},{"bufferView":56,"byteOffset":0,"componentType":5125,"count":144,"type":"SCALAR"},{"bufferView":57,"byteOffset":0,"componentType":5126,"count":88,"max":[0.299283891916275,0.9270433187484741,0.760506808757782],"min":[-0.5585643649101257,-0.9270433187484741,-0.6495866775512695],"type":"VEC3"},{"bufferView":58,"byteOffset":0,"componentType":5126,"count":88,"type":"VEC3"},{"bufferView":59,"byteOffset":0,"componentType":5126,"count":88,"type":"VEC2"},{"bufferView":60,"byteOffset":0,"componentType":5125,"count":60,"type":"SCALAR"},{"bufferView":61,"byteOffset":0,"componentType":5126,"count":40,"max":[0.0878443792462349,2.4596452713012695,0.04007738083600998],"min":[-0.0878443494439125,-0.020574375987052917,-0.04007738083600998],"type":"VEC3"},{"bufferView":62,"byteOffset":0,"componentType":5126,"count":40,"type":"VEC3"},{"bufferView":63,"byteOffset":0,"componentType":5126,"count":40,"type":"VEC2"},{"bufferView":64,"byteOffset":0,"componentType":5125,"count":156,"type":"SCALAR"},{"bufferView":65,"byteOffset":0,"componentType":5126,"count":96,"max":[96.0928955078125,1247.1181640625,274.2295227050781],"min":[-96.0928955078125,-1247.1181640625,0],"type":"VEC3"},{"bufferView":66,"byteOffset":0,"componentType":5126,"count":96,"type":"VEC3"},{"bufferView":67,"byteOffset":0,"componentType":5126,"count":96,"type":"VEC2"}],"bufferViews":[{"buffer":0,"byteOffset":0,"byteLength":7392,"target":34963},{"buffer":0,"byteOffset":7392,"byteLength":13548,"target":34962},{"buffer":0,"byteOffset":20940,"byteLength":13548,"target":34962},{"buffer":0,"byteOffset":34488,"byteLength":9032,"target":34962},{"buffer":0,"byteOffset":43520,"byteLength":1152,"target":34963},{"buffer":0,"byteOffset":44672,"byteLength":2304,"target":34962},{"buffer":0,"byteOffset":46976,"byteLength":2304,"target":34962},{"buffer":0,"byteOffset":49280,"byteLength":1536,"target":34962},{"buffer":0,"byteOffset":50816,"byteLength":3456,"target":34963},{"buffer":0,"byteOffset":54272,"byteLength":2520,"target":34962},{"buffer":0,"byteOffset":56792,"byteLength":2520,"target":34962},{"buffer":0,"byteOffset":59312,"byteLength":1680,"target":34962},{"buffer":0,"byteOffset":60992,"byteLength":2880,"target":34963},{"buffer":0,"byteOffset":63872,"byteLength":5592,"target":34962},{"buffer":0,"byteOffset":69464,"byteLength":5592,"target":34962},{"buffer":0,"byteOffset":75056,"byteLength":3728,"target":34962},{"buffer":0,"byteOffset":78784,"byteLength":2952,"target":34963},{"buffer":0,"byteOffset":81736,"byteLength":6264,"target":34962},{"buffer":0,"byteOffset":88000,"byteLength":6264,"target":34962},{"buffer":0,"byteOffset":94264,"byteLength":4176,"target":34962},{"buffer":0,"byteOffset":98440,"byteLength":528,"target":34963},{"buffer":0,"byteOffset":98968,"byteLength":1032,"target":34962},{"buffer":0,"byteOffset":100000,"byteLength":1032,"target":34962},{"buffer":0,"byteOffset":101032,"byteLength":688,"target":34962},{"buffer":0,"byteOffset":101720,"byteLength":144,"target":34963},{"buffer":0,"byteOffset":101864,"byteLength":288,"target":34962},{"buffer":0,"byteOffset":102152,"byteLength":288,"target":34962},{"buffer":0,"byteOffset":102440,"byteLength":192,"target":34962},{"buffer":0,"byteOffset":102632,"byteLength":216,"target":34963},{"buffer":0,"byteOffset":102848,"byteLength":432,"target":34962},{"buffer":0,"byteOffset":103280,"byteLength":432,"target":34962},{"buffer":0,"byteOffset":103712,"byteLength":288,"target":34962},{"buffer":0,"byteOffset":104000,"byteLength":5952,"target":34963},{"buffer":0,"byteOffset":109952,"byteLength":7008,"target":34962},{"buffer":0,"byteOffset":116960,"byteLength":7008,"target":34962},{"buffer":0,"byteOffset":123968,"byteLength":4672,"target":34962},{"buffer":0,"byteOffset":128640,"byteLength":28416,"target":34963},{"buffer":0,"byteOffset":157056,"byteLength":27168,"target":34962},{"buffer":0,"byteOffset":184224,"byteLength":27168,"target":34962},{"buffer":0,"byteOffset":211392,"byteLength":18112,"target":34962},{"buffer":0,"byteOffset":229504,"byteLength":7680,"target":34963},{"buffer":0,"byteOffset":237184,"byteLength":8448,"target":34962},{"buffer":0,"byteOffset":245632,"byteLength":8448,"target":34962},{"buffer":0,"byteOffset":254080,"byteLength":5632,"target":34962},{"buffer":0,"byteOffset":259712,"byteLength":480,"target":34963},{"buffer":0,"byteOffset":260192,"byteLength":864,"target":34962},{"buffer":0,"byteOffset":261056,"byteLength":864,"target":34962},{"buffer":0,"byteOffset":261920,"byteLength":576,"target":34962},{"buffer":0,"byteOffset":262496,"byteLength":480,"target":34963},{"buffer":0,"byteOffset":262976,"byteLength":864,"target":34962},{"buffer":0,"byteOffset":263840,"byteLength":864,"target":34962},{"buffer":0,"byteOffset":264704,"byteLength":576,"target":34962},{"buffer":0,"byteOffset":265280,"byteLength":576,"target":34963},{"buffer":0,"byteOffset":265856,"byteLength":1056,"target":34962},{"buffer":0,"byteOffset":266912,"byteLength":1056,"target":34962},{"buffer":0,"byteOffset":267968,"byteLength":704,"target":34962},{"buffer":0,"byteOffset":268672,"byteLength":576,"target":34963},{"buffer":0,"byteOffset":269248,"byteLength":1056,"target":34962},{"buffer":0,"byteOffset":270304,"byteLength":1056,"target":34962},{"buffer":0,"byteOffset":271360,"byteLength":704,"target":34962},{"buffer":0,"byteOffset":272064,"byteLength":240,"target":34963},{"buffer":0,"byteOffset":272304,"byteLength":480,"target":34962},{"buffer":0,"byteOffset":272784,"byteLength":480,"target":34962},{"buffer":0,"byteOffset":273264,"byteLength":320,"target":34962},{"buffer":0,"byteOffset":273584,"byteLength":624,"target":34963},{"buffer":0,"byteOffset":274208,"byteLength":1152,"target":34962},{"buffer":0,"byteOffset":275360,"byteLength":1152,"target":34962},{"buffer":0,"byteOffset":276512,"byteLength":768,"target":34962}],"scene":0,"scenes":[{"nodes":[0,22],"name":"Project Name"}],"extensionsUsed":["KHR_texture_transform","KHR_materials_ior","KHR_materials_volume","KHR_materials_transmission"],"buffers":[{"byteLength":277280,"uri":"ProjectName.bin"}]}