{"asset":{"version":"2.0","generator":"VECTARY"},"nodes":[{"translation":[0,0,0],"scale":[0.001,0.001,0.001],"rotation":[-0.7071067811865475,0,0,0.7071067811865476],"name":"4-Way crossroad","children":[1]},{"translation":[0,0,0],"scale":[1,1,1],"rotation":[0,0,0,1],"name":"4-Way crossroad","children":[2,3,4,5]},{"translation":[0,0,0],"scale":[1,1,1],"rotation":[0,0,0,1],"name":"Road","mesh":0},{"translation":[0,0,0],"scale":[1,1,1],"rotation":[0,0,0,1],"name":"Footpaths","mesh":1},{"translation":[0,0,0],"scale":[1,1,1],"rotation":[0,0,0,1],"name":"Crosswalk","mesh":2},{"translation":[0,0,0],"scale":[1,1,1],"rotation":[0,0,0,1],"name":"Grass","mesh":3},{"translation":[0.00041598892211914065,-1.7763568394002505e-18,0.009999999999999986],"scale":[0.001,0.001,0.001],"rotation":[-0.7071067811865475,0,0,0.7071067811865476],"name":"Parking lot block","children":[7]},{"translation":[-0.4159889221191406,9.999999999999986,0],"scale":[1,1,1],"rotation":[0,0,0,1],"name":"Project Name"},{"translation":[0,0,0],"scale":[0.001,0.001,0.001],"rotation":[-0.7071067811865475,0,0,0.7071067811865476],"name":"Project Name"},{"translation":[0,-1.6653345369377348e-19,0.0007375717163085884],"scale":[0.001,0.001,0.001],"rotation":[-0.7071067811865475,0,0,0.7071067811865476],"name":"Building with store","children":[10]},{"translation":[0,0.7375717163085884,0],"scale":[1,1,1],"rotation":[0,0,0,1],"name":"Project Name"}],"materials":[{"pbrMetallicRoughness":{"baseColorFactor":[0.04455262731642138,0.04614884242235095,0.08021925873621505,1],"metallicFactor":0,"roughnessFactor":1},"name":"Road 1","emissiveFactor":[0,0,0],"extensions":{},"alphaMode":"OPAQUE","doubleSided":false},{"pbrMetallicRoughness":{"baseColorFactor":[0.39929329990267437,0.39408312608282897,0.39929329990267437,1],"metallicFactor":0,"roughnessFactor":1},"name":"Footpaths","emissiveFactor":[0,0,0],"extensions":{},"alphaMode":"OPAQUE","doubleSided":false},{"pbrMetallicRoughness":{"baseColorFactor":[1,1,1,1],"metallicFactor":0,"roughnessFactor":1},"name":"Crosswalk","emissiveFactor":[0,0,0],"extensions":{},"alphaMode":"OPAQUE","doubleSided":false},{"pbrMetallicRoughness":{"baseColorFactor":[0.04777575355617064,0.6253447208024265,0.20109572962134564,1],"metallicFactor":0,"roughnessFactor":1},"name":"Grass 1","emissiveFactor":[0,0,0],"extensions":{},"alphaMode":"OPAQUE","doubleSided":false}],"meshes":[{"primitives":[{"mode":4,"attributes":{"POSITION":1,"NORMAL":2,"TEXCOORD_0":3},"material":0,"indices":0}]},{"primitives":[{"mode":4,"attributes":{"POSITION":5,"NORMAL":6,"TEXCOORD_0":7},"material":1,"indices":4}]},{"primitives":[{"mode":4,"attributes":{"POSITION":9,"NORMAL":10,"TEXCOORD_0":11},"material":2,"indices":8}]},{"primitives":[{"mode":4,"attributes":{"POSITION":13,"NORMAL":14,"TEXCOORD_0":15},"material":3,"indices":12}]}],"accessors":[{"bufferView":0,"byteOffset":0,"componentType":5125,"count":420,"type":"SCALAR"},{"bufferView":1,"byteOffset":0,"componentType":5126,"count":152,"max":[80,80,2],"min":[-80,-80,0],"type":"VEC3"},{"bufferView":2,"byteOffset":0,"componentType":5126,"count":152,"type":"VEC3"},{"bufferView":3,"byteOffset":0,"componentType":5126,"count":152,"type":"VEC2"},{"bufferView":4,"byteOffset":0,"componentType":5125,"count":960,"type":"SCALAR"},{"bufferView":5,"byteOffset":0,"componentType":5126,"count":352,"max":[80,80,3],"min":[-80,-80,0],"type":"VEC3"},{"bufferView":6,"byteOffset":0,"componentType":5126,"count":352,"type":"VEC3"},{"bufferView":7,"byteOffset":0,"componentType":5126,"count":352,"type":"VEC2"},{"bufferView":8,"byteOffset":0,"componentType":5125,"count":1008,"type":"SCALAR"},{"bufferView":9,"byteOffset":0,"componentType":5126,"count":672,"max":[80,80,2.5],"min":[-80,-80,2],"type":"VEC3"},{"bufferView":10,"byteOffset":0,"componentType":5126,"count":672,"type":"VEC3"},{"bufferView":11,"byteOffset":0,"componentType":5126,"count":672,"type":"VEC2"},{"bufferView":12,"byteOffset":0,"componentType":5125,"count":336,"type":"SCALAR"},{"bufferView":13,"byteOffset":0,"componentType":5126,"count":160,"max":[80,80,2],"min":[-80,-80,0],"type":"VEC3"},{"bufferView":14,"byteOffset":0,"componentType":5126,"count":160,"type":"VEC3"},{"bufferView":15,"byteOffset":0,"componentType":5126,"count":160,"type":"VEC2"}],"bufferViews":[{"buffer":0,"byteOffset":0,"byteLength":1680,"target":34963},{"buffer":0,"byteOffset":1680,"byteLength":1824,"target":34962},{"buffer":0,"byteOffset":3504,"byteLength":1824,"target":34962},{"buffer":0,"byteOffset":5328,"byteLength":1216,"target":34962},{"buffer":0,"byteOffset":6544,"byteLength":3840,"target":34963},{"buffer":0,"byteOffset":10384,"byteLength":4224,"target":34962},{"buffer":0,"byteOffset":14608,"byteLength":4224,"target":34962},{"buffer":0,"byteOffset":18832,"byteLength":2816,"target":34962},{"buffer":0,"byteOffset":21648,"byteLength":4032,"target":34963},{"buffer":0,"byteOffset":25680,"byteLength":8064,"target":34962},{"buffer":0,"byteOffset":33744,"byteLength":8064,"target":34962},{"buffer":0,"byteOffset":41808,"byteLength":5376,"target":34962},{"buffer":0,"byteOffset":47184,"byteLength":1344,"target":34963},{"buffer":0,"byteOffset":48528,"byteLength":1920,"target":34962},{"buffer":0,"byteOffset":50448,"byteLength":1920,"target":34962},{"buffer":0,"byteOffset":52368,"byteLength":1280,"target":34962}],"scene":0,"scenes":[{"nodes":[0,6,8,9],"name":"CG-City Assets"}],"extensionsUsed":["KHR_texture_transform"],"buffers":[{"byteLength":53648,"uri":"CG-CityAssets.bin"}]}