{"asset":{"version":"2.0","generator":"VECTARY"},"nodes":[{"translation":[0.0003689999580383301,-5.551115123125783e-20,0.0008174999952316284],"scale":[0.001,0.001,0.001],"rotation":[-0.7071067811865475,0,0,0.7071067811865476],"name":"Traffic light","children":[1,2]},{"translation":[-0.3689999580383301,0.8174999952316284,0],"scale":[1,1,1],"rotation":[0,0,0,1],"name":"Project Name"},{"translation":[-0.3689999580383301,0.8174999952316284,0],"scale":[1,1,1],"rotation":[0,0,0,1],"name":"Traffic light","children":[3,4]},{"translation":[-0.003999948501586914,-0.8174999952316284,37.03600572512257],"scale":[1,1,1],"rotation":[0,0,0,1],"name":"Main body","mesh":0},{"translation":[-0.0040000081062316895,0,0],"scale":[1,1,1],"rotation":[0,0,0,1],"name":"Stick","mesh":1}],"materials":[{"pbrMetallicRoughness":{"baseColorFactor":[0.04455262731642138,0.04614884242235095,0.08021925873621505,1],"metallicFactor":0,"roughnessFactor":1},"name":"Black material","emissiveFactor":[0,0,0],"extensions":{},"alphaMode":"OPAQUE","doubleSided":false}],"meshes":[{"primitives":[{"mode":4,"attributes":{"POSITION":1,"NORMAL":2,"TEXCOORD_0":3},"material":0,"indices":0}]},{"primitives":[{"mode":4,"attributes":{"POSITION":5,"NORMAL":6,"TEXCOORD_0":7},"material":0,"indices":4}]}],"accessors":[{"bufferView":0,"byteOffset":0,"componentType":5125,"count":1224,"type":"SCALAR"},{"bufferView":1,"byteOffset":0,"componentType":5126,"count":541,"max":[2.680999994277954,4.109499931335449,14.51300048828125],"min":[-2.680999994277954,-4.109499931335449,0],"type":"VEC3"},{"bufferView":2,"byteOffset":0,"componentType":5126,"count":541,"type":"VEC3"},{"bufferView":3,"byteOffset":0,"componentType":5126,"count":541,"type":"VEC2"},{"bufferView":4,"byteOffset":0,"componentType":5125,"count":174,"type":"SCALAR"},{"bufferView":5,"byteOffset":0,"componentType":5126,"count":75,"max":[1.7669999599456787,2.0399999618530273,37.33803176879883],"min":[-1.7669999599456787,-2.0399999618530273,0],"type":"VEC3"},{"bufferView":6,"byteOffset":0,"componentType":5126,"count":75,"type":"VEC3"},{"bufferView":7,"byteOffset":0,"componentType":5126,"count":75,"type":"VEC2"}],"bufferViews":[{"buffer":0,"byteOffset":0,"byteLength":4896,"target":34963},{"buffer":0,"byteOffset":4896,"byteLength":6492,"target":34962},{"buffer":0,"byteOffset":11388,"byteLength":6492,"target":34962},{"buffer":0,"byteOffset":17880,"byteLength":4328,"target":34962},{"buffer":0,"byteOffset":22208,"byteLength":696,"target":34963},{"buffer":0,"byteOffset":22904,"byteLength":900,"target":34962},{"buffer":0,"byteOffset":23804,"byteLength":900,"target":34962},{"buffer":0,"byteOffset":24704,"byteLength":600,"target":34962}],"scene":0,"scenes":[{"nodes":[0],"name":"Project Name"}],"extensionsUsed":["KHR_texture_transform"],"buffers":[{"byteLength":25304,"uri":"ProjectName.bin"}]}