{"asset":{"version":"2.0","generator":"VECTARY"},"nodes":[{"translation":[0,-1.6653345369377348e-19,0.0007375717163085884],"scale":[0.001,0.001,0.001],"rotation":[-0.7071067811865475,0,0,0.7071067811865476],"name":"Building with store","children":[1,2]},{"translation":[0,0.7375717163085884,0],"scale":[1,1,1],"rotation":[0,0,0,1],"name":"Project Name"},{"translation":[0,0,0],"scale":[1,1,1],"rotation":[0,0,0,1],"name":"Building 1","children":[3,4,5,6,7,8,9]},{"translation":[3.020917595394041e-16,0.8605003356933578,0],"scale":[1,1,1],"rotation":[0,0,1,2.83276944882399e-16],"name":"Window frames","mesh":0},{"translation":[3.020917595394041e-16,0.8605003356933578,0],"scale":[1,1,1],"rotation":[0,0,1,2.83276944882399e-16],"name":"Ground floor","mesh":1},{"translation":[3.020917595394041e-16,0.8605003356933578,0],"scale":[1,1,1],"rotation":[0,0,1,2.83276944882399e-16],"name":"Window glass 1","mesh":2},{"translation":[3.020917595394041e-16,0.8605003356933578,0],"scale":[1,1,1],"rotation":[0,0,1,2.83276944882399e-16],"name":"Window frames 2","mesh":3},{"translation":[3.020917595394041e-16,0.8605003356933578,0],"scale":[1,1,1],"rotation":[0,0,1,2.83276944882399e-16],"name":"Window frames 3","mesh":4},{"translation":[3.020917595394041e-16,0.8605003356933578,0],"scale":[1,1,1],"rotation":[0,0,1,2.83276944882399e-16],"name":"Door","mesh":5},{"translation":[3.020917595394041e-16,0.8605003356933578,0],"scale":[1,1,1],"rotation":[0,0,1,2.83276944882399e-16],"name":"Lights","mesh":6}],"materials":[{"pbrMetallicRoughness":{"baseColorFactor":[0.8122414898984895,0.8122414898984895,0.8122414898984895,1],"metallicFactor":0,"roughnessFactor":1},"name":"Roof and frames","emissiveFactor":[0,0,0],"extensions":{},"alphaMode":"OPAQUE","doubleSided":false},{"pbrMetallicRoughness":{"baseColorFactor":[0.9489649381781952,0.08690125178766034,0.16364067148528988,1],"metallicFactor":0,"roughnessFactor":1},"name":"Ground floor","emissiveFactor":[0,0,0],"extensions":{},"alphaMode":"OPAQUE","doubleSided":false},{"pbrMetallicRoughness":{"baseColorFactor":[0.04455262731642138,0.04614884242235095,0.08021925873621505,1],"metallicFactor":0,"roughnessFactor":0},"name":"Windows","emissiveFactor":[0,0,0],"extensions":{},"alphaMode":"OPAQUE","doubleSided":false},{"pbrMetallicRoughness":{"baseColorFactor":[0.03561436968491877,0.03561436968491877,0.03561436968491877,1],"metallicFactor":0,"roughnessFactor":0.2},"name":"Material 5","emissiveFactor":[0,0,0],"extensions":{},"alphaMode":"OPAQUE","doubleSided":false}],"meshes":[{"primitives":[{"mode":4,"attributes":{"POSITION":1,"NORMAL":2,"TEXCOORD_0":3},"material":0,"indices":0}]},{"primitives":[{"mode":4,"attributes":{"POSITION":5,"NORMAL":6,"TEXCOORD_0":7},"material":1,"indices":4}]},{"primitives":[{"mode":4,"attributes":{"POSITION":9,"NORMAL":10,"TEXCOORD_0":11},"material":2,"indices":8}]},{"primitives":[{"mode":4,"attributes":{"POSITION":13,"NORMAL":14,"TEXCOORD_0":15},"material":0,"indices":12}]},{"primitives":[{"mode":4,"attributes":{"POSITION":17,"NORMAL":18,"TEXCOORD_0":19},"material":0,"indices":16}]},{"primitives":[{"mode":4,"attributes":{"POSITION":21,"NORMAL":22,"TEXCOORD_0":23},"material":0,"indices":20}]},{"primitives":[{"mode":4,"attributes":{"POSITION":25,"NORMAL":26,"TEXCOORD_0":27},"material":3,"indices":24}]}],"accessors":[{"bufferView":0,"byteOffset":0,"componentType":5125,"count":1836,"type":"SCALAR"},{"bufferView":1,"byteOffset":0,"componentType":5126,"count":792,"max":[29.082000732421875,19.082000732421875,23.878000259399414],"min":[-29.082000732421875,-19.082000732421875,6.307000160217285],"type":"VEC3"},{"bufferView":2,"byteOffset":0,"componentType":5126,"count":792,"type":"VEC3"},{"bufferView":3,"byteOffset":0,"componentType":5126,"count":792,"type":"VEC2"},{"bufferView":4,"byteOffset":0,"componentType":5125,"count":972,"type":"SCALAR"},{"bufferView":5,"byteOffset":0,"componentType":5126,"count":408,"max":[30.8439998626709,20.8439998626709,30],"min":[-30.8439998626709,-20.8439998626709,0],"type":"VEC3"},{"bufferView":6,"byteOffset":0,"componentType":5126,"count":408,"type":"VEC3"},{"bufferView":7,"byteOffset":0,"componentType":5126,"count":408,"type":"VEC2"},{"bufferView":8,"byteOffset":0,"componentType":5125,"count":360,"type":"SCALAR"},{"bufferView":9,"byteOffset":0,"componentType":5126,"count":240,"max":[28.211999893188477,18.211999893188477,23.941999435424805],"min":[-28.211999893188477,-18.211999893188477,0.43799999356269836],"type":"VEC3"},{"bufferView":10,"byteOffset":0,"componentType":5126,"count":240,"type":"VEC3"},{"bufferView":11,"byteOffset":0,"componentType":5126,"count":240,"type":"VEC2"},{"bufferView":12,"byteOffset":0,"componentType":5125,"count":264,"type":"SCALAR"},{"bufferView":13,"byteOffset":0,"componentType":5126,"count":144,"max":[25.253000259399414,19.082000732421875,23.437999725341797],"min":[-25.253000259399414,18,19.277000427246094],"type":"VEC3"},{"bufferView":14,"byteOffset":0,"componentType":5126,"count":144,"type":"VEC3"},{"bufferView":15,"byteOffset":0,"componentType":5126,"count":144,"type":"VEC2"},{"bufferView":16,"byteOffset":0,"componentType":5125,"count":192,"type":"SCALAR"},{"bufferView":17,"byteOffset":0,"componentType":5126,"count":96,"max":[24.97800064086914,19.14900016784668,23.163000106811523],"min":[-24.97800064086914,18.513999938964844,19.552000045776367],"type":"VEC3"},{"bufferView":18,"byteOffset":0,"componentType":5126,"count":96,"type":"VEC3"},{"bufferView":19,"byteOffset":0,"componentType":5126,"count":96,"type":"VEC2"},{"bufferView":20,"byteOffset":0,"componentType":5125,"count":444,"type":"SCALAR"},{"bufferView":21,"byteOffset":0,"componentType":5126,"count":204,"max":[8.142000198364258,20.60700035095215,23.941999435424805],"min":[-8.142000198364258,18,0.43799999356269836],"type":"VEC3"},{"bufferView":22,"byteOffset":0,"componentType":5126,"count":204,"type":"VEC3"},{"bufferView":23,"byteOffset":0,"componentType":5126,"count":204,"type":"VEC2"},{"bufferView":24,"byteOffset":0,"componentType":5125,"count":648,"type":"SCALAR"},{"bufferView":25,"byteOffset":0,"componentType":5126,"count":256,"max":[12,22.565000534057617,23.187999725341797],"min":[-12,19.565000534057617,22],"type":"VEC3"},{"bufferView":26,"byteOffset":0,"componentType":5126,"count":256,"type":"VEC3"},{"bufferView":27,"byteOffset":0,"componentType":5126,"count":256,"type":"VEC2"}],"bufferViews":[{"buffer":0,"byteOffset":0,"byteLength":7344,"target":34963},{"buffer":0,"byteOffset":7344,"byteLength":9504,"target":34962},{"buffer":0,"byteOffset":16848,"byteLength":9504,"target":34962},{"buffer":0,"byteOffset":26352,"byteLength":6336,"target":34962},{"buffer":0,"byteOffset":32688,"byteLength":3888,"target":34963},{"buffer":0,"byteOffset":36576,"byteLength":4896,"target":34962},{"buffer":0,"byteOffset":41472,"byteLength":4896,"target":34962},{"buffer":0,"byteOffset":46368,"byteLength":3264,"target":34962},{"buffer":0,"byteOffset":49632,"byteLength":1440,"target":34963},{"buffer":0,"byteOffset":51072,"byteLength":2880,"target":34962},{"buffer":0,"byteOffset":53952,"byteLength":2880,"target":34962},{"buffer":0,"byteOffset":56832,"byteLength":1920,"target":34962},{"buffer":0,"byteOffset":58752,"byteLength":1056,"target":34963},{"buffer":0,"byteOffset":59808,"byteLength":1728,"target":34962},{"buffer":0,"byteOffset":61536,"byteLength":1728,"target":34962},{"buffer":0,"byteOffset":63264,"byteLength":1152,"target":34962},{"buffer":0,"byteOffset":64416,"byteLength":768,"target":34963},{"buffer":0,"byteOffset":65184,"byteLength":1152,"target":34962},{"buffer":0,"byteOffset":66336,"byteLength":1152,"target":34962},{"buffer":0,"byteOffset":67488,"byteLength":768,"target":34962},{"buffer":0,"byteOffset":68256,"byteLength":1776,"target":34963},{"buffer":0,"byteOffset":70032,"byteLength":2448,"target":34962},{"buffer":0,"byteOffset":72480,"byteLength":2448,"target":34962},{"buffer":0,"byteOffset":74928,"byteLength":1632,"target":34962},{"buffer":0,"byteOffset":76560,"byteLength":2592,"target":34963},{"buffer":0,"byteOffset":79152,"byteLength":3072,"target":34962},{"buffer":0,"byteOffset":82224,"byteLength":3072,"target":34962},{"buffer":0,"byteOffset":85296,"byteLength":2048,"target":34962}],"scene":0,"scenes":[{"nodes":[0],"name":"CG-City Assets"}],"extensionsUsed":["KHR_texture_transform"],"buffers":[{"byteLength":87344,"uri":"CG-CityAssets.bin"}]}