{"asset":{"version":"2.0","generator":"VECTARY"},"nodes":[{"translation":[0,-1.6653345369377348e-19,0.0007375717163085884],"scale":[0.001,0.001,0.001],"rotation":[-0.7071067811865475,0,0,0.7071067811865476],"name":"Building with store","children":[1,2]},{"translation":[0,0.7375717163085884,0],"scale":[1,1,1],"rotation":[0,0,0,1],"name":"Project Name"},{"translation":[0,0,0],"scale":[1,1,1],"rotation":[0,0,0,1],"name":"Building 1","children":[3,4,5]},{"translation":[3.020917595394041e-16,0.8605003356933578,0],"scale":[1,1,1],"rotation":[0,0,1,2.83276944882399e-16],"name":"Main building","mesh":0},{"translation":[3.020917595394041e-16,0.8605003356933578,0],"scale":[1,1,1],"rotation":[0,0,1,2.83276944882399e-16],"name":"Window frames 1","mesh":1},{"translation":[3.020917595394041e-16,0.8605003356933578,0],"scale":[1,1,1],"rotation":[0,0,1,2.83276944882399e-16],"name":"Window glass","mesh":2}],"materials":[{"pbrMetallicRoughness":{"baseColorFactor":[0.373615024646202,0.373615024646202,0.373615024646202,1],"metallicFactor":0,"roughnessFactor":1},"name":"Grey material","emissiveFactor":[0,0,0],"extensions":{},"alphaMode":"OPAQUE","doubleSided":false},{"pbrMetallicRoughness":{"baseColorFactor":[0.8122414898984895,0.8122414898984895,0.8122414898984895,1],"metallicFactor":0,"roughnessFactor":1},"name":"Roof and frames","emissiveFactor":[0,0,0],"extensions":{},"alphaMode":"OPAQUE","doubleSided":false},{"pbrMetallicRoughness":{"baseColorFactor":[0.04455262731642138,0.04614884242235095,0.08021925873621505,1],"metallicFactor":0,"roughnessFactor":0},"name":"Windows","emissiveFactor":[0,0,0],"extensions":{},"alphaMode":"OPAQUE","doubleSided":false}],"meshes":[{"primitives":[{"mode":4,"attributes":{"POSITION":1,"NORMAL":2,"TEXCOORD_0":3},"material":0,"indices":0}]},{"primitives":[{"mode":4,"attributes":{"POSITION":5,"NORMAL":6,"TEXCOORD_0":7},"material":1,"indices":4}]},{"primitives":[{"mode":4,"attributes":{"POSITION":9,"NORMAL":10,"TEXCOORD_0":11},"material":2,"indices":8}]}],"accessors":[{"bufferView":0,"byteOffset":0,"componentType":5125,"count":1512,"type":"SCALAR"},{"bufferView":1,"byteOffset":0,"componentType":5126,"count":686,"max":[28.981000900268555,18.981000900268555,80],"min":[-28.981000900268555,-18.981000900268555,30],"type":"VEC3"},{"bufferView":2,"byteOffset":0,"componentType":5126,"count":686,"type":"VEC3"},{"bufferView":3,"byteOffset":0,"componentType":5126,"count":686,"type":"VEC2"},{"bufferView":4,"byteOffset":0,"componentType":5125,"count":4080,"type":"SCALAR"},{"bufferView":5,"byteOffset":0,"componentType":5126,"count":1760,"max":[27.613000869750977,17.613000869750977,75.19499969482422],"min":[-27.613000869750977,-17.613000869750977,36.672000885009766],"type":"VEC3"},{"bufferView":6,"byteOffset":0,"componentType":5126,"count":1760,"type":"VEC3"},{"bufferView":7,"byteOffset":0,"componentType":5126,"count":1760,"type":"VEC2"},{"bufferView":8,"byteOffset":0,"componentType":5125,"count":720,"type":"SCALAR"},{"bufferView":9,"byteOffset":0,"componentType":5126,"count":480,"max":[27.142000198364258,17.142000198364258,75.19499969482422],"min":[-27.142000198364258,-17.142000198364258,36.672000885009766],"type":"VEC3"},{"bufferView":10,"byteOffset":0,"componentType":5126,"count":480,"type":"VEC3"},{"bufferView":11,"byteOffset":0,"componentType":5126,"count":480,"type":"VEC2"}],"bufferViews":[{"buffer":0,"byteOffset":0,"byteLength":6048,"target":34963},{"buffer":0,"byteOffset":6048,"byteLength":8232,"target":34962},{"buffer":0,"byteOffset":14280,"byteLength":8232,"target":34962},{"buffer":0,"byteOffset":22512,"byteLength":5488,"target":34962},{"buffer":0,"byteOffset":28000,"byteLength":16320,"target":34963},{"buffer":0,"byteOffset":44320,"byteLength":21120,"target":34962},{"buffer":0,"byteOffset":65440,"byteLength":21120,"target":34962},{"buffer":0,"byteOffset":86560,"byteLength":14080,"target":34962},{"buffer":0,"byteOffset":100640,"byteLength":2880,"target":34963},{"buffer":0,"byteOffset":103520,"byteLength":5760,"target":34962},{"buffer":0,"byteOffset":109280,"byteLength":5760,"target":34962},{"buffer":0,"byteOffset":115040,"byteLength":3840,"target":34962}],"scene":0,"scenes":[{"nodes":[0],"name":"CG-City Assets"}],"extensionsUsed":["KHR_texture_transform"],"buffers":[{"byteLength":118880,"uri":"CG-CityAssets.bin"}]}