{"asset":{"version":"2.0","generator":"VECTARY"},"nodes":[{"translation":[0,-1.6653345369377348e-19,0.0007375717163085884],"scale":[0.001,0.001,0.001],"rotation":[-0.7071067811865475,0,0,0.7071067811865476],"name":"Building with store","children":[1,2]},{"translation":[0,0.7375717163085884,0],"scale":[1,1,1],"rotation":[0,0,0,1],"name":"Project Name"},{"translation":[0,0,0],"scale":[1,1,1],"rotation":[0,0,0,1],"name":"Building 1","children":[3,4]},{"translation":[3.020917595394041e-16,0.8605003356933578,0],"scale":[1,1,1],"rotation":[0,0,1,2.83276944882399e-16],"name":"Roof","mesh":0},{"translation":[3.020917595394041e-16,0.8605003356933578,0],"scale":[1,1,1],"rotation":[0,0,1,2.83276944882399e-16],"name":"Roof 1","mesh":1}],"materials":[{"pbrMetallicRoughness":{"baseColorFactor":[0.8122414898984895,0.8122414898984895,0.8122414898984895,1],"metallicFactor":0,"roughnessFactor":1},"name":"Roof and frames","emissiveFactor":[0,0,0],"extensions":{},"alphaMode":"OPAQUE","doubleSided":false},{"pbrMetallicRoughness":{"baseColorFactor":[0.373615024646202,0.373615024646202,0.373615024646202,1],"metallicFactor":0,"roughnessFactor":1},"name":"Grey material","emissiveFactor":[0,0,0],"extensions":{},"alphaMode":"OPAQUE","doubleSided":false}],"meshes":[{"primitives":[{"mode":4,"attributes":{"POSITION":1,"NORMAL":2,"TEXCOORD_0":3},"material":0,"indices":0}]},{"primitives":[{"mode":4,"attributes":{"POSITION":5,"NORMAL":6,"TEXCOORD_0":7},"material":1,"indices":4}]}],"accessors":[{"bufferView":0,"byteOffset":0,"componentType":5125,"count":384,"type":"SCALAR"},{"bufferView":1,"byteOffset":0,"componentType":5126,"count":142,"max":[30,20,91],"min":[-30,-20,80],"type":"VEC3"},{"bufferView":2,"byteOffset":0,"componentType":5126,"count":142,"type":"VEC3"},{"bufferView":3,"byteOffset":0,"componentType":5126,"count":142,"type":"VEC2"},{"bufferView":4,"byteOffset":0,"componentType":5125,"count":216,"type":"SCALAR"},{"bufferView":5,"byteOffset":0,"componentType":5126,"count":84,"max":[28,18,82.68199920654297],"min":[-28,-18,82],"type":"VEC3"},{"bufferView":6,"byteOffset":0,"componentType":5126,"count":84,"type":"VEC3"},{"bufferView":7,"byteOffset":0,"componentType":5126,"count":84,"type":"VEC2"}],"bufferViews":[{"buffer":0,"byteOffset":0,"byteLength":1536,"target":34963},{"buffer":0,"byteOffset":1536,"byteLength":1704,"target":34962},{"buffer":0,"byteOffset":3240,"byteLength":1704,"target":34962},{"buffer":0,"byteOffset":4944,"byteLength":1136,"target":34962},{"buffer":0,"byteOffset":6080,"byteLength":864,"target":34963},{"buffer":0,"byteOffset":6944,"byteLength":1008,"target":34962},{"buffer":0,"byteOffset":7952,"byteLength":1008,"target":34962},{"buffer":0,"byteOffset":8960,"byteLength":672,"target":34962}],"scene":0,"scenes":[{"nodes":[0],"name":"CG-City Assets"}],"extensionsUsed":["KHR_texture_transform"],"buffers":[{"byteLength":9632,"uri":"CG-CityAssets.bin"}]}