{"asset":{"version":"2.0","generator":"VECTARY"},"nodes":[{"translation":[0.000018451703049052525,-3.469446951953614e-21,0.00003321306548829739],"scale":[0.001,0.001,0.001],"rotation":[-0.7071067811865475,0,0,0.7071067811865476],"name":"Green building","children":[1,2]},{"translation":[-0.018451703049052526,0.03321306548829739,0],"scale":[1,1,1],"rotation":[0,0,0,1],"name":"Project Name"},{"translation":[0,0,0],"scale":[1,1,1],"rotation":[0,0,0,1],"name":"Green building","children":[3,4]},{"translation":[5,-9,0],"scale":[1,1,1],"rotation":[0,0,0,1],"name":"Ground floor","mesh":0},{"translation":[5,-9,0],"scale":[1,1,1],"rotation":[0,0,0,1],"name":"Doors","mesh":1},{"translation":[0,-1.6653345369377348e-19,0.0007375717163085884],"scale":[0.001,0.001,0.001],"rotation":[-0.7071067811865475,0,0,0.7071067811865476],"name":"Building with store","children":[6]},{"translation":[0,0.7375717163085884,0],"scale":[1,1,1],"rotation":[0,0,0,1],"name":"Project Name"}],"materials":[{"pbrMetallicRoughness":{"baseColorFactor":[0.9489649381781952,0.08690125178766034,0.16364067148528988,1],"metallicFactor":0,"roughnessFactor":1},"name":"Red material","emissiveFactor":[0,0,0],"extensions":{},"alphaMode":"OPAQUE","doubleSided":false},{"pbrMetallicRoughness":{"baseColorFactor":[0.7372047873606051,0.7372047873606051,0.7372047873606051,1],"metallicFactor":0,"roughnessFactor":1},"name":"Window frames and door","emissiveFactor":[0,0,0],"extensions":{},"alphaMode":"OPAQUE","doubleSided":false}],"meshes":[{"primitives":[{"mode":4,"attributes":{"POSITION":1,"NORMAL":2,"TEXCOORD_0":3},"material":0,"indices":0}]},{"primitives":[{"mode":4,"attributes":{"POSITION":5,"NORMAL":6,"TEXCOORD_0":7},"material":1,"indices":4}]}],"accessors":[{"bufferView":0,"byteOffset":0,"componentType":5125,"count":2082,"type":"SCALAR"},{"bufferView":1,"byteOffset":0,"componentType":5126,"count":755,"max":[40,40,30],"min":[-50,-22,0],"type":"VEC3"},{"bufferView":2,"byteOffset":0,"componentType":5126,"count":755,"type":"VEC3"},{"bufferView":3,"byteOffset":0,"componentType":5126,"count":755,"type":"VEC2"},{"bufferView":4,"byteOffset":0,"componentType":5125,"count":1128,"type":"SCALAR"},{"bufferView":5,"byteOffset":0,"componentType":5126,"count":458,"max":[31.2760009765625,-8.734999656677246,26.496999740600586],"min":[-41.2760009765625,-10.75100040435791,0],"type":"VEC3"},{"bufferView":6,"byteOffset":0,"componentType":5126,"count":458,"type":"VEC3"},{"bufferView":7,"byteOffset":0,"componentType":5126,"count":458,"type":"VEC2"}],"bufferViews":[{"buffer":0,"byteOffset":0,"byteLength":8328,"target":34963},{"buffer":0,"byteOffset":8328,"byteLength":9060,"target":34962},{"buffer":0,"byteOffset":17388,"byteLength":9060,"target":34962},{"buffer":0,"byteOffset":26448,"byteLength":6040,"target":34962},{"buffer":0,"byteOffset":32488,"byteLength":4512,"target":34963},{"buffer":0,"byteOffset":37000,"byteLength":5496,"target":34962},{"buffer":0,"byteOffset":42496,"byteLength":5496,"target":34962},{"buffer":0,"byteOffset":47992,"byteLength":3664,"target":34962}],"scene":0,"scenes":[{"nodes":[0,5],"name":"CG-City Assets"}],"extensionsUsed":["KHR_texture_transform"],"buffers":[{"byteLength":51656,"uri":"CG-CityAssets.bin"}]}