{"asset":{"version":"2.0","generator":"VECTARY"},"nodes":[{"translation":[0.0026499996185302735,4.440892098500626e-19,-0.0026499996185302683],"scale":[0.001,0.001,0.001],"rotation":[-0.7071067811865475,0,0,0.7071067811865476],"name":"Building","children":[1,2,4]},{"translation":[-2.6499996185302734,-2.649999618530268,0],"scale":[1,1,1],"rotation":[0,0,0,1],"name":"Project Name 1"},{"translation":[-4.769999313354492,5.773159728050814e-15,0],"scale":[1,1,1],"rotation":[0,0,1,2.83276944882399e-16],"name":"Building 2","children":[3]},{"translation":[-2.1199996948242186,-2.6499996185302734,0],"scale":[1.0000000000000002,1.0000000000000002,1],"rotation":[0,0,0.7071067811865475,0.7071067811865476],"name":"Roof","mesh":0},{"translation":[-2.6499996185302734,-2.649999618530268,0],"scale":[1,1,1],"rotation":[0,0,0,1],"name":"Project Name"},{"translation":[0,-1.6653345369377348e-19,0.0007375717163085884],"scale":[0.001,0.001,0.001],"rotation":[-0.7071067811865475,0,0,0.7071067811865476],"name":"Building with store","children":[6]},{"translation":[0,0.7375717163085884,0],"scale":[1,1,1],"rotation":[0,0,0,1],"name":"Project Name"}],"materials":[{"pbrMetallicRoughness":{"baseColorFactor":[0.18014428915439032,0.18014428915439032,0.18014428915439032,1],"metallicFactor":0,"roughnessFactor":1},"name":"Window frames and roof","emissiveFactor":[0,0,0],"extensions":{},"alphaMode":"OPAQUE","doubleSided":false}],"meshes":[{"primitives":[{"mode":4,"attributes":{"POSITION":1,"NORMAL":2,"TEXCOORD_0":3},"material":0,"indices":0}]}],"accessors":[{"bufferView":0,"byteOffset":0,"componentType":5125,"count":132,"type":"SCALAR"},{"bufferView":1,"byteOffset":0,"componentType":5126,"count":52,"max":[17.281999588012695,27.281999588012695,87.49199676513672],"min":[-17.281999588012695,-27.281999588012695,87.05500030517578],"type":"VEC3"},{"bufferView":2,"byteOffset":0,"componentType":5126,"count":52,"type":"VEC3"},{"bufferView":3,"byteOffset":0,"componentType":5126,"count":52,"type":"VEC2"}],"bufferViews":[{"buffer":0,"byteOffset":0,"byteLength":528,"target":34963},{"buffer":0,"byteOffset":528,"byteLength":624,"target":34962},{"buffer":0,"byteOffset":1152,"byteLength":624,"target":34962},{"buffer":0,"byteOffset":1776,"byteLength":416,"target":34962}],"scene":0,"scenes":[{"nodes":[0,5],"name":"CG-City Assets"}],"extensionsUsed":["KHR_texture_transform"],"buffers":[{"byteLength":2192,"uri":"CG-CityAssets.bin"}]}