{"asset":{"version":"2.0","generator":"VECTARY"},"nodes":[{"translation":[0.0003689999580383301,-5.551115123125783e-20,0.0008174999952316284],"scale":[0.001,0.001,0.001],"rotation":[-0.7071067811865475,0,0,0.7071067811865476],"name":"Traffic light","children":[1,2]},{"translation":[-0.3689999580383301,0.8174999952316284,0],"scale":[1,1,1],"rotation":[0,0,0,1],"name":"Project Name"},{"translation":[-0.3689999580383301,0.8174999952316284,0],"scale":[1,1,1],"rotation":[0,0,0,1],"name":"Traffic light","children":[3,4,5,6,7]},{"translation":[-0.003999948501586914,-0.8174999952316284,42.32699966430664],"scale":[1,1,1],"rotation":[0,0,0,1],"name":"Main body","mesh":0},{"translation":[-0.0040000081062316895,0,0],"scale":[1,1,1],"rotation":[0,0,0,1],"name":"Stick","mesh":1},{"translation":[-0.0040000081062316895,-2.409999966621399,43.16400146484375],"scale":[1,1,1],"rotation":[0,0,0,1],"name":"Green light","mesh":2},{"translation":[-0.0040000081062316895,-2.409999966621399,47.689998626708984],"scale":[1,1,1],"rotation":[0,0,0,1],"name":"Orange light","mesh":3},{"translation":[-0.0040000081062316895,-2.409999966621399,52.237998962402344],"scale":[1,1,1],"rotation":[0,0,0,1],"name":"Red light","mesh":4}],"materials":[{"pbrMetallicRoughness":{"baseColorFactor":[0.04455262731642138,0.04614884242235095,0.08021925873621505,1],"metallicFactor":0,"roughnessFactor":1},"name":"Black material","emissiveFactor":[0,0,0],"extensions":{},"alphaMode":"OPAQUE","doubleSided":false},{"pbrMetallicRoughness":{"baseColorFactor":[0.04777575355617064,0.6253447208024265,0.20109572962134564,1],"metallicFactor":0,"roughnessFactor":0.5},"name":"Green light","emissiveFactor":[0,0,0],"extensions":{},"alphaMode":"OPAQUE","doubleSided":false},{"pbrMetallicRoughness":{"baseColorFactor":[1,0.6054842999109071,0.04614884242235095,1],"metallicFactor":0,"roughnessFactor":0.5},"name":"Orange light","emissiveFactor":[0,0,0],"extensions":{},"alphaMode":"OPAQUE","doubleSided":false},{"pbrMetallicRoughness":{"baseColorFactor":[0.9489649381781952,0.08690125178766034,0.16364067148528988,1],"metallicFactor":0,"roughnessFactor":0.5},"name":"Red light","emissiveFactor":[0,0,0],"extensions":{},"alphaMode":"OPAQUE","doubleSided":false}],"meshes":[{"primitives":[{"mode":4,"attributes":{"POSITION":1,"NORMAL":2,"TEXCOORD_0":3},"material":0,"indices":0}]},{"primitives":[{"mode":4,"attributes":{"POSITION":5,"NORMAL":6,"TEXCOORD_0":7},"material":0,"indices":4}]},{"primitives":[{"mode":4,"attributes":{"POSITION":9,"NORMAL":10,"TEXCOORD_0":11},"material":1,"indices":8}]},{"primitives":[{"mode":4,"attributes":{"POSITION":13,"NORMAL":14,"TEXCOORD_0":15},"material":2,"indices":12}]},{"primitives":[{"mode":4,"attributes":{"POSITION":17,"NORMAL":18,"TEXCOORD_0":19},"material":3,"indices":16}]}],"accessors":[{"bufferView":0,"byteOffset":0,"componentType":5125,"count":1224,"type":"SCALAR"},{"bufferView":1,"byteOffset":0,"componentType":5126,"count":541,"max":[2.680999994277954,4.109499931335449,14.51300048828125],"min":[-2.680999994277954,-4.109499931335449,0],"type":"VEC3"},{"bufferView":2,"byteOffset":0,"componentType":5126,"count":541,"type":"VEC3"},{"bufferView":3,"byteOffset":0,"componentType":5126,"count":541,"type":"VEC2"},{"bufferView":4,"byteOffset":0,"componentType":5125,"count":174,"type":"SCALAR"},{"bufferView":5,"byteOffset":0,"componentType":5126,"count":75,"max":[1.7669999599456787,2.0399999618530273,43.72600173950195],"min":[-1.7669999599456787,-2.0399999618530273,0],"type":"VEC3"},{"bufferView":6,"byteOffset":0,"componentType":5126,"count":75,"type":"VEC3"},{"bufferView":7,"byteOffset":0,"componentType":5126,"count":75,"type":"VEC2"},{"bufferView":8,"byteOffset":0,"componentType":5125,"count":192,"type":"SCALAR"},{"bufferView":9,"byteOffset":0,"componentType":5126,"count":73,"max":[1.9200000762939453,0.5349999666213989,3.8400001525878906],"min":[-1.9200000762939453,-0.5349999666213989,0],"type":"VEC3"},{"bufferView":10,"byteOffset":0,"componentType":5126,"count":73,"type":"VEC3"},{"bufferView":11,"byteOffset":0,"componentType":5126,"count":73,"type":"VEC2"},{"bufferView":12,"byteOffset":0,"componentType":5125,"count":192,"type":"SCALAR"},{"bufferView":13,"byteOffset":0,"componentType":5126,"count":74,"max":[1.9200000762939453,0.5349999666213989,3.8409996032714844],"min":[-1.9200000762939453,-0.5349999666213989,0],"type":"VEC3"},{"bufferView":14,"byteOffset":0,"componentType":5126,"count":74,"type":"VEC3"},{"bufferView":15,"byteOffset":0,"componentType":5126,"count":74,"type":"VEC2"},{"bufferView":16,"byteOffset":0,"componentType":5125,"count":192,"type":"SCALAR"},{"bufferView":17,"byteOffset":0,"componentType":5126,"count":74,"max":[1.9200000762939453,0.5349999666213989,3.8400001525878906],"min":[-1.9200000762939453,-0.5349999666213989,0],"type":"VEC3"},{"bufferView":18,"byteOffset":0,"componentType":5126,"count":74,"type":"VEC3"},{"bufferView":19,"byteOffset":0,"componentType":5126,"count":74,"type":"VEC2"}],"bufferViews":[{"buffer":0,"byteOffset":0,"byteLength":4896,"target":34963},{"buffer":0,"byteOffset":4896,"byteLength":6492,"target":34962},{"buffer":0,"byteOffset":11388,"byteLength":6492,"target":34962},{"buffer":0,"byteOffset":17880,"byteLength":4328,"target":34962},{"buffer":0,"byteOffset":22208,"byteLength":696,"target":34963},{"buffer":0,"byteOffset":22904,"byteLength":900,"target":34962},{"buffer":0,"byteOffset":23804,"byteLength":900,"target":34962},{"buffer":0,"byteOffset":24704,"byteLength":600,"target":34962},{"buffer":0,"byteOffset":25304,"byteLength":768,"target":34963},{"buffer":0,"byteOffset":26072,"byteLength":876,"target":34962},{"buffer":0,"byteOffset":26948,"byteLength":876,"target":34962},{"buffer":0,"byteOffset":27824,"byteLength":584,"target":34962},{"buffer":0,"byteOffset":28408,"byteLength":768,"target":34963},{"buffer":0,"byteOffset":29176,"byteLength":888,"target":34962},{"buffer":0,"byteOffset":30064,"byteLength":888,"target":34962},{"buffer":0,"byteOffset":30952,"byteLength":592,"target":34962},{"buffer":0,"byteOffset":31544,"byteLength":768,"target":34963},{"buffer":0,"byteOffset":32312,"byteLength":888,"target":34962},{"buffer":0,"byteOffset":33200,"byteLength":888,"target":34962},{"buffer":0,"byteOffset":34088,"byteLength":592,"target":34962}],"scene":0,"scenes":[{"nodes":[0],"name":"Project Name"}],"extensionsUsed":["KHR_texture_transform"],"buffers":[{"byteLength":34680,"uri":"ProjectName.bin"}]}