{"asset":{"version":"2.0","generator":"VECTARY"},"nodes":[{"translation":[0.00041598892211914065,-1.7763568394002505e-18,0.009999999999999986],"scale":[0.001,0.001,0.001],"rotation":[-0.7071067811865475,0,0,0.7071067811865476],"name":"Parking lot block","children":[1,2]},{"translation":[-0.4159889221191406,9.999999999999986,0],"scale":[1,1,1],"rotation":[0,0,0,1],"name":"Project Name"},{"translation":[0,-1.4210854715202004e-14,0],"scale":[1.0000000000000002,1.0000000000000002,1],"rotation":[0,0,0.7071067811865475,0.7071067811865476],"name":"Parking lot","children":[3,4,5,6,7,8]},{"translation":[0.000003814697265625,-0.41599273681640625,0],"scale":[1,1,1],"rotation":[0,0,0,1],"name":"Road","mesh":0},{"translation":[-0.4159889221191406,10,0],"scale":[1,1,1],"rotation":[0,0,0,1],"name":"Trees","mesh":1},{"translation":[-87.70798873901367,-9.5367431640625e-7,2.2700002193450928],"scale":[1,1,1],"rotation":[0,0,0,1],"name":"Grass","mesh":2},{"translation":[-0.4159889221191406,10,0],"scale":[1,1,1],"rotation":[0,0,0,1],"name":"Lines","mesh":3},{"translation":[-90.20798873901367,64.78999996185303,0],"scale":[1,1,1],"rotation":[0,0,0,1],"name":"Concretes","mesh":4},{"translation":[0.000003814697265625,-0.41599273681640625,0],"scale":[1,1,1],"rotation":[0,0,0,1],"name":"Footpath","mesh":5},{"translation":[0,0,0],"scale":[0.001,0.001,0.001],"rotation":[-0.7071067811865475,0,0,0.7071067811865476],"name":"Project Name"},{"translation":[0,-1.6653345369377348e-19,0.0007375717163085884],"scale":[0.001,0.001,0.001],"rotation":[-0.7071067811865475,0,0,0.7071067811865476],"name":"Building with store","children":[11]},{"translation":[0,0.7375717163085884,0],"scale":[1,1,1],"rotation":[0,0,0,1],"name":"Project Name"}],"materials":[{"pbrMetallicRoughness":{"baseColorFactor":[0.04455262731642138,0.04614884242235095,0.08021925873621505,1],"metallicFactor":0,"roughnessFactor":1},"name":"Road","emissiveFactor":[0,0,0],"extensions":{},"alphaMode":"OPAQUE","doubleSided":false},{"pbrMetallicRoughness":{"baseColorFactor":[0.04777575355617064,0.6253447208024265,0.20109572962134564,1],"metallicFactor":0,"roughnessFactor":1},"name":"Trees","emissiveFactor":[0,0,0],"extensions":{},"alphaMode":"OPAQUE","doubleSided":false},{"pbrMetallicRoughness":{"baseColorFactor":[0.009696328701658229,0.36360389792055325,0.08919350686224783,1],"metallicFactor":0,"roughnessFactor":1},"name":"Grass","emissiveFactor":[0,0,0],"extensions":{},"alphaMode":"OPAQUE","doubleSided":false},{"pbrMetallicRoughness":{"baseColorFactor":[1,1,1,1],"metallicFactor":0,"roughnessFactor":1},"name":"Lines","emissiveFactor":[0,0,0],"extensions":{},"alphaMode":"OPAQUE","doubleSided":false},{"pbrMetallicRoughness":{"baseColorFactor":[0.39929329990267437,0.39408312608282897,0.39929329990267437,1],"metallicFactor":0,"roughnessFactor":1},"name":"Concretes","emissiveFactor":[0,0,0],"extensions":{},"alphaMode":"OPAQUE","doubleSided":false},{"pbrMetallicRoughness":{"baseColorFactor":[0.39929329990267437,0.39408312608282897,0.39929329990267437,1],"metallicFactor":0,"roughnessFactor":1},"name":"Footpath","emissiveFactor":[0,0,0],"extensions":{},"alphaMode":"OPAQUE","doubleSided":false}],"meshes":[{"primitives":[{"mode":4,"attributes":{"POSITION":1,"NORMAL":2,"TEXCOORD_0":3},"material":0,"indices":0}]},{"primitives":[{"mode":4,"attributes":{"POSITION":5,"NORMAL":6,"TEXCOORD_0":7},"material":1,"indices":4}]},{"primitives":[{"mode":4,"attributes":{"POSITION":9,"NORMAL":10,"TEXCOORD_0":11},"material":2,"indices":8}]},{"primitives":[{"mode":4,"attributes":{"POSITION":13,"NORMAL":14,"TEXCOORD_0":15},"material":3,"indices":12}]},{"primitives":[{"mode":4,"attributes":{"POSITION":17,"NORMAL":18,"TEXCOORD_0":19},"material":4,"indices":16}]},{"primitives":[{"mode":4,"attributes":{"POSITION":21,"NORMAL":22,"TEXCOORD_0":23},"material":5,"indices":20}]}],"accessors":[{"bufferView":0,"byteOffset":0,"componentType":5125,"count":552,"type":"SCALAR"},{"bufferView":1,"byteOffset":0,"componentType":5126,"count":186,"max":[99.99999237060547,100.00000762939453,2],"min":[-119.99999237060547,-100.00000762939453,0],"type":"VEC3"},{"bufferView":2,"byteOffset":0,"componentType":5126,"count":186,"type":"VEC3"},{"bufferView":3,"byteOffset":0,"componentType":5126,"count":186,"type":"VEC2"},{"bufferView":4,"byteOffset":0,"componentType":5125,"count":864,"type":"SCALAR"},{"bufferView":5,"byteOffset":0,"componentType":5126,"count":486,"max":[-83.53436279296875,80.21562957763672,13.389811515808105],"min":[-91.04563903808594,-100.21563720703125,3.2391583919525146],"type":"VEC3"},{"bufferView":6,"byteOffset":0,"componentType":5126,"count":486,"type":"VEC3"},{"bufferView":7,"byteOffset":0,"componentType":5126,"count":486,"type":"VEC2"},{"bufferView":8,"byteOffset":0,"componentType":5125,"count":432,"type":"SCALAR"},{"bufferView":9,"byteOffset":0,"componentType":5126,"count":156,"max":[9.791999816894531,97.0840072631836,0.9700000286102295],"min":[-9.791999816894531,-97.0840072631836,0],"type":"VEC3"},{"bufferView":10,"byteOffset":0,"componentType":5126,"count":156,"type":"VEC3"},{"bufferView":11,"byteOffset":0,"componentType":5126,"count":156,"type":"VEC2"},{"bufferView":12,"byteOffset":0,"componentType":5125,"count":1860,"type":"SCALAR"},{"bufferView":13,"byteOffset":0,"componentType":5126,"count":776,"max":[120.41598510742188,109.58401489257812,3.5],"min":[-119.5840072631836,-129.58401489257812,2],"type":"VEC3"},{"bufferView":14,"byteOffset":0,"componentType":5126,"count":776,"type":"VEC3"},{"bufferView":15,"byteOffset":0,"componentType":5126,"count":776,"type":"VEC2"},{"bufferView":16,"byteOffset":0,"componentType":5125,"count":552,"type":"SCALAR"},{"bufferView":17,"byteOffset":0,"componentType":5126,"count":208,"max":[14.791999816894531,34.79400634765625,3.7700002193450928],"min":[-9.791999816894531,-164.37400817871094,0],"type":"VEC3"},{"bufferView":18,"byteOffset":0,"componentType":5126,"count":208,"type":"VEC3"},{"bufferView":19,"byteOffset":0,"componentType":5126,"count":208,"type":"VEC2"},{"bufferView":20,"byteOffset":0,"componentType":5125,"count":1248,"type":"SCALAR"},{"bufferView":21,"byteOffset":0,"componentType":5126,"count":386,"max":[119.99999237060547,120.00000762939453,3],"min":[-119.99999237060547,-119.16802215576172,0],"type":"VEC3"},{"bufferView":22,"byteOffset":0,"componentType":5126,"count":386,"type":"VEC3"},{"bufferView":23,"byteOffset":0,"componentType":5126,"count":386,"type":"VEC2"}],"bufferViews":[{"buffer":0,"byteOffset":0,"byteLength":2208,"target":34963},{"buffer":0,"byteOffset":2208,"byteLength":2232,"target":34962},{"buffer":0,"byteOffset":4440,"byteLength":2232,"target":34962},{"buffer":0,"byteOffset":6672,"byteLength":1488,"target":34962},{"buffer":0,"byteOffset":8160,"byteLength":3456,"target":34963},{"buffer":0,"byteOffset":11616,"byteLength":5832,"target":34962},{"buffer":0,"byteOffset":17448,"byteLength":5832,"target":34962},{"buffer":0,"byteOffset":23280,"byteLength":3888,"target":34962},{"buffer":0,"byteOffset":27168,"byteLength":1728,"target":34963},{"buffer":0,"byteOffset":28896,"byteLength":1872,"target":34962},{"buffer":0,"byteOffset":30768,"byteLength":1872,"target":34962},{"buffer":0,"byteOffset":32640,"byteLength":1248,"target":34962},{"buffer":0,"byteOffset":33888,"byteLength":7440,"target":34963},{"buffer":0,"byteOffset":41328,"byteLength":9312,"target":34962},{"buffer":0,"byteOffset":50640,"byteLength":9312,"target":34962},{"buffer":0,"byteOffset":59952,"byteLength":6208,"target":34962},{"buffer":0,"byteOffset":66160,"byteLength":2208,"target":34963},{"buffer":0,"byteOffset":68368,"byteLength":2496,"target":34962},{"buffer":0,"byteOffset":70864,"byteLength":2496,"target":34962},{"buffer":0,"byteOffset":73360,"byteLength":1664,"target":34962},{"buffer":0,"byteOffset":75024,"byteLength":4992,"target":34963},{"buffer":0,"byteOffset":80016,"byteLength":4632,"target":34962},{"buffer":0,"byteOffset":84648,"byteLength":4632,"target":34962},{"buffer":0,"byteOffset":89280,"byteLength":3088,"target":34962}],"scene":0,"scenes":[{"nodes":[0,9,10],"name":"CG-City Assets"}],"extensionsUsed":["KHR_texture_transform"],"buffers":[{"byteLength":92368,"uri":"CG-CityAssets.bin"}]}